Special Train for Hitler (1977) PAL DVDR DD2.0 NL Subs
.
User request: Enjoy it, not my type off movie.
.
[IMG]http://i.imgur.com/bZvvpJY.jpg[/IMG]
.
75 min  -  Drama | Thriller | War  -  23 February 1977 (France)
. 
http://www.imdb.com/title/tt0076836/
. 
http://www.moviemeter.nl/film/13794
.
PLOT
.
The SS puts a slutty nightclub singer in charge of a train car full of prostitutes whose "services" are reserved solely for Adolf Hitler. 
.
Source: NL Retail
Format: DVD5
Video: PAL
Audio: English DD2.0
Retail Subtitles: Dutch
Menu: Yes
Extra's: NOS
Removed: Warnings and useless stuff.
Notes: Exploitation Series, Old movie, so don't expect the quality as it is today.
.
Enjoy DVDR by NLU002
.
Info from VTS 0101
.
General
Format                                   : MPEG-PS
File size                                : 1 024 MiB
Duration                                 : 29mn 32s
Overall bit rate mode                    : Variable
Overall bit rate                         : 4 846 Kbps

Video
ID                                       : 224 (0xE0)
Format                                   : MPEG Video
Format version                           : Version 2
Format profile                           : Main@Main
Format settings, BVOP                    : Yes
Format settings, Matrix                  : Custom
Format settings, GOP                     : M=3, N=15
Duration                                 : 29mn 32s
Bit rate mode                            : Variable
Bit rate                                 : 4 494 Kbps
Maximum bit rate                         : 8 000 Kbps
Width                                    : 720 pixels
Height                                   : 576 pixels
Display aspect ratio                     : 16:9
Frame rate                               : 25.000 fps
Standard                                 : PAL
Color space                              : YUV
Chroma subsampling                       : 4:2:0
Bit depth                                : 8 bits
Scan type                                : Interlaced
Scan order                               : Top Field First
Compression mode                         : Lossy
Bits/(Pixel*Frame)                       : 0.433
Stream size                              : 950 MiB (93%)

Audio
ID                                       : 189 (0xBD)-128 (0x80)
Format                                   : AC-3
Format/Info                              : Audio Coding 3
Mode extension                           : CM (complete main)
Format settings, Endianness              : Big
Muxing mode                              : DVD-Video
Duration                                 : 29mn 32s
Bit rate mode                            : Constant
Bit rate                                 : 256 Kbps
Channel(s)                               : 2 channels
Channel positions                        : Front: L R
Sampling rate                            : 48.0 KHz
Bit depth                                : 16 bits
Compression mode                         : Lossy
Stream size                              : 54.1 MiB (5%)

Text
ID                                       : 189 (0xBD)-32 (0x20)
Format                                   : RLE
Format/Info                              : Run-length encoding
Muxing mode                              : DVD-Video
Delay relative to video                  : 160ms

Menu